<svg width="206" height="197" xmlns="http://www.w3.org/2000/svg" xmlns:xlink="http://www.w3.org/1999/xlink" xml:space="preserve" overflow="hidden"><defs><clipPath id="clip0"><rect x="0" y="0" width="206" height="197"/></clipPath></defs><g clip-path="url(#clip0)"><path d="M230.255 172.351C229.718 170.328 228.849 168.409 227.685 166.67 227.934 165.755 228.125 164.825 228.252 163.885 229.079 157.921 227.011 152.461 223.115 148.237 221.004 145.929 218.742 144.405 216.346 143.47 217.919 136.741 218.714 129.854 218.718 122.944 218.718 119.787 218.539 116.696 218.24 113.65 218.084 112.129 217.896 110.612 217.674 109.099 216.988 104.635 215.971 100.228 214.629 95.9157 213.75 93.0822 212.733 90.2931 211.581 87.5586 209.856 83.509 207.841 79.5888 205.553 75.8284 204.052 73.3265 202.417 70.9072 200.656 68.5811 199.792 67.4065 198.893 66.2596 197.957 65.1421 195.185 61.7729 192.172 58.609 188.942 55.6752 187.869 54.6889 186.767 53.7365 185.634 52.819 184.519 51.8892 183.38 50.9894 182.217 50.1205 179.877 48.3786 177.459 46.7445 174.97 45.2234 161.216 36.8703 145.088 32.08 127.85 32.08 77.6597 32.08 36.9821 72.7596 36.9821 122.947 36.9801 129.945 37.7905 136.919 39.3972 143.729 37.2416 144.665 35.1758 146.124 33.2596 148.235 29.3645 152.457 27.2957 157.897 28.123 163.861 28.2488 164.808 28.4374 165.746 28.6889 166.668 27.5253 168.408 26.6577 170.328 26.1211 172.351 24.9235 176.903 25.3177 181.007 26.8396 184.604 25.185 189.305 25.5981 194.31 27.7528 198.663 29.3196 201.841 31.5621 204.3 34.3265 206.498 37.6128 209.11 41.7265 211.33 46.6884 213.46 52.6084 215.984 59.8348 218.357 63.1211 219.227 71.6099 221.424 79.7495 222.818 87.9988 222.886 99.7519 222.994 109.873 220.231 117.12 213.158 120.68 213.594 124.263 213.813 127.85 213.811 131.639 213.803 135.425 213.564 139.185 213.097 146.414 220.215 156.575 223.003 168.371 222.892 176.619 222.826 184.759 221.432 193.226 219.232 196.534 218.362 203.757 215.99 209.68 213.465 214.642 211.332 218.756 209.112 222.064 206.504 224.808 204.305 227.048 201.847 228.616 198.669 230.793 194.315 231.184 189.31 229.552 184.609 231.059 181.012 231.451 176.899 230.255 172.351ZM221.832 184.3C223.499 187.464 223.606 191.04 222.135 194.37 219.904 199.417 214.361 203.393 203.596 207.661 196.901 210.316 190.772 212.014 190.718 212.029 181.864 214.325 173.856 215.492 166.924 215.492 155.445 215.492 146.903 212.324 141.486 206.069 132.326 207.629 122.973 207.682 113.796 206.226 108.371 212.378 99.8787 215.492 88.4967 215.492 81.5638 215.492 73.557 214.325 64.7019 212.029 64.648 212.014 58.5205 210.316 51.824 207.661 41.0598 203.393 35.5151 199.42 33.2846 194.37 31.8136 191.04 31.9203 187.464 33.588 184.3 33.7417 184.005 33.9073 183.719 34.084 183.441 33.0846 181.94 32.4142 180.245 32.1169 178.465 31.8197 176.687 31.9024 174.866 32.3595 173.121 33.0221 170.603 34.3903 168.51 36.2486 167.006 35.3534 165.535 34.7661 163.898 34.5221 162.193 33.9872 158.487 35.2177 154.786 37.9851 151.769 40.1407 149.42 43.1875 148.128 46.5607 148.128L46.6505 148.128C44.1072 139.975 42.8177 131.484 42.8262 122.944 42.8262 76.3673 80.5858 38.6048 127.169 38.6048 173.752 38.6048 211.512 76.3633 211.512 122.944 211.519 131.507 210.22 140.02 207.66 148.192 208.068 148.152 208.467 148.132 208.859 148.131 212.232 148.131 215.28 149.423 217.434 151.772 220.201 154.786 221.432 158.49 220.897 162.196 220.653 163.901 220.065 165.538 219.171 167.009 221.029 168.513 222.399 170.606 223.06 173.124 223.517 174.869 223.6 176.69 223.303 178.469 223.006 180.248 222.336 181.943 221.336 183.444 221.512 183.719 221.68 184.005 221.832 184.3Z" fill="#FFFFFF" transform="matrix(1.00278 0 0 1 -25.9165 -25.8446)"/><path d="M221.336 183.444C222.336 181.943 223.006 180.248 223.304 178.469 223.6 176.69 223.517 174.869 223.06 173.124 222.398 170.606 221.028 168.513 219.171 167.009 220.066 165.538 220.653 163.901 220.897 162.196 221.432 158.49 220.202 154.789 217.434 151.772 215.28 149.423 212.232 148.131 208.859 148.131 208.467 148.131 208.068 148.152 207.66 148.192 210.217 140.02 211.514 131.508 211.505 122.946 211.505 76.3684 173.745 38.6069 127.166 38.6069 80.5868 38.6069 42.8232 76.3644 42.8232 122.946 42.8148 131.486 44.1043 139.977 46.6475 148.13L46.5576 148.13C43.1844 148.13 40.1377 149.421 37.9831 151.77 35.2157 154.784 33.9841 158.489 34.52 162.194 34.7642 163.899 35.3515 165.537 36.2465 167.008 34.3882 168.511 33.0191 170.604 32.3565 173.122 31.8996 174.868 31.8173 176.689 32.1148 178.469 32.4124 180.247 33.0831 181.943 34.0829 183.444 33.9052 183.722 33.7416 184.008 33.5869 184.303 31.9202 187.467 31.8126 191.043 33.2846 194.373 35.5161 199.42 41.0587 203.396 51.8239 207.664 58.5174 210.319 64.648 212.017 64.7019 212.032 73.556 214.328 81.5638 215.494 88.4958 215.494 99.8787 215.494 108.371 212.381 113.796 206.229 122.973 207.685 132.326 207.631 141.486 206.072 146.903 212.327 155.445 215.494 166.924 215.494 173.856 215.494 181.864 214.328 190.717 212.032 190.772 212.017 196.899 210.319 203.596 207.664 214.361 203.396 219.905 199.42 222.135 194.373 223.606 191.043 223.499 187.467 221.832 184.303 221.68 184.006 221.512 183.719 221.336 183.444ZM109.914 196.599C109.447 197.415 108.947 198.213 108.415 198.988 107.013 201.041 105.169 202.61 103.028 203.775 98.9365 206.007 93.7571 206.786 88.4958 206.786 80.1836 206.786 71.6628 204.841 66.8875 203.603 66.652 203.542 37.6128 195.339 41.2894 188.357 41.9081 187.183 42.926 186.714 44.2084 186.714 49.3849 186.714 58.8108 194.422 62.8616 194.422 63.7667 194.422 64.4054 194.037 64.6659 193.097 66.3924 186.905 38.4261 184.303 40.7813 175.337 41.1965 173.75 42.3243 173.105 43.9091 173.105 50.7532 173.104 66.1141 185.141 69.3266 185.141 69.5731 185.141 69.7496 185.068 69.8454 184.916 69.8594 184.893 69.8735 184.872 69.8864 184.848 71.3944 182.358 70.529 180.547 60.199 174.22L59.207 173.616C47.839 166.736 39.8602 162.596 44.398 157.656 44.9199 157.086 45.6604 156.833 46.5596 156.833 47.6254 156.833 48.9158 157.19 50.3369 157.788 56.3408 160.32 64.662 167.225 68.138 170.236 68.6848 170.711 69.2281 171.191 69.7676 171.674 69.7676 171.674 74.1688 176.251 76.8294 176.251 77.4421 176.251 77.962 176.009 78.3143 175.413 80.2015 172.231 60.7868 157.519 59.692 151.448 58.9495 147.336 60.2129 145.252 62.5482 145.252 63.659 145.252 65.0142 145.725 66.5102 146.674 71.1508 149.619 80.1106 165.016 83.391 171.006 84.4908 173.013 86.368 173.861 88.0595 173.861 91.4157 173.861 94.0394 170.525 88.3669 166.285 79.8412 159.906 82.8332 149.479 86.902 148.838 87.0756 148.81 87.2512 148.796 87.4258 148.796 91.1263 148.796 92.758 155.172 92.758 155.172 92.758 155.172 97.5423 167.185 105.761 175.398 113.218 182.852 114.26 188.968 109.914 196.599ZM136.49 198.006 136.063 198.057 135.337 198.14C134.955 198.18 134.571 198.217 134.187 198.252L133.813 198.286 133.471 198.315 132.986 198.354 132.45 198.393 131.915 198.428 131.796 198.436C131.656 198.444 131.517 198.453 131.375 198.46L131.196 198.47C131.031 198.479 130.865 198.487 130.697 198.494L130.117 198.519 129.592 198.537 129.24 198.547 129.062 198.547C128.952 198.547 128.843 198.553 128.733 198.554L128.56 198.554C128.45 198.554 128.341 198.554 128.231 198.559L127.784 198.565 127.16 198.565C126.67 198.565 126.181 198.56 125.694 198.55L125.299 198.541C125.186 198.541 125.074 198.536 124.963 198.532L124.544 198.52 124.024 198.5 123.555 198.479 123.434 198.474 122.988 198.451C122.863 198.444 122.74 198.438 122.617 198.429L122.328 198.412C121.966 198.389 121.604 198.364 121.241 198.336L120.862 198.305C120.703 198.293 120.543 198.278 120.384 198.264 120.198 198.248 120.011 198.23 119.824 198.213 119.512 198.184 119.2 198.152 118.887 198.118L118.872 198.118C123.433 187.943 121.127 178.441 111.91 169.232 105.866 163.195 101.845 154.281 101.01 152.324 99.3217 146.531 94.8529 140.091 87.4309 140.091 86.8032 140.091 86.1764 140.141 85.5567 140.239 82.3053 140.751 79.463 142.622 77.4352 145.438 75.2436 142.713 73.1139 140.546 71.1878 139.323 68.2837 137.482 65.3855 136.547 62.5622 136.547 59.0383 136.547 55.8887 137.994 53.6931 140.619L53.6373 140.686C53.5953 140.513 53.5554 140.341 53.5145 140.167L53.5095 140.144C53.0917 138.358 52.7409 136.556 52.4576 134.743 52.4576 134.731 52.4576 134.719 52.4517 134.707 52.4297 134.57 52.4097 134.433 52.3888 134.296 52.3274 133.891 52.2698 133.485 52.2161 133.078 52.1922 132.894 52.1662 132.709 52.1433 132.525L52.0754 131.971C52.0535 131.786 52.0355 131.618 52.0155 131.443L52.0097 131.399C51.9299 130.68 51.8601 129.962 51.8 129.241L51.778 128.965 51.7431 128.494C51.7331 128.365 51.7231 128.235 51.7161 128.106 51.7161 128.075 51.7112 128.045 51.7102 128.016 51.6848 127.654 51.6632 127.292 51.6453 126.93 51.6353 126.741 51.6253 126.554 51.6173 126.364L51.5974 125.869 51.5924 125.719 51.5764 125.263 51.5664 124.875C51.5664 124.72 51.5585 124.566 51.5565 124.411 51.5535 124.256 51.5495 124.087 51.5485 123.923 51.5465 123.759 51.5485 123.598 51.5435 123.435 51.5395 123.271 51.5435 123.109 51.5435 122.946 51.5435 81.1777 85.4059 47.3153 127.178 47.3153 168.95 47.3153 202.811 81.1767 202.811 122.946L202.811 123.923C202.811 124.086 202.806 124.249 202.803 124.411 202.803 124.546 202.797 124.678 202.793 124.815 202.793 124.935 202.788 125.056 202.784 125.171 202.784 125.324 202.775 125.477 202.77 125.63L202.77 125.642 202.749 126.171C202.742 126.326 202.736 126.482 202.728 126.636L202.723 126.746 202.696 127.241C202.638 128.302 202.557 129.361 202.456 130.419L202.456 130.432C202.439 130.605 202.422 130.779 202.403 130.953L202.358 131.363 202.269 132.165 202.218 132.571 202.156 133.049C202.133 133.223 202.11 133.398 202.084 133.57 202.058 133.765 202.029 133.959 202 134.152L201.931 134.61 201.849 135.129C201.821 135.302 201.791 135.474 201.759 135.645 201.726 135.818 201.7 135.99 201.67 136.161 201.611 136.505 201.548 136.848 201.482 137.19 201.381 137.702 201.278 138.213 201.173 138.724L201.063 139.23C201.027 139.399 200.988 139.568 200.95 139.737 198.821 137.668 196.002 136.541 192.893 136.541 190.072 136.541 187.171 137.475 184.268 139.316 182.342 140.539 180.213 142.707 178.02 145.431 175.99 142.615 173.147 140.744 169.898 140.232 169.278 140.134 168.651 140.084 168.024 140.084 160.6 140.084 156.134 146.524 154.444 152.317 153.606 154.275 149.584 163.188 143.534 169.234 134.324 178.414 132.001 187.873 136.49 198.006ZM214.572 177.638 214.542 177.727C214.467 177.928 214.379 178.123 214.28 178.313 214.205 178.453 214.124 178.588 214.036 178.72 213.87 178.968 213.687 179.206 213.489 179.43 213.443 179.481 213.399 179.533 213.347 179.584 213.275 179.661 213.202 179.737 213.127 179.811 211.784 181.142 209.736 182.31 207.421 183.381 207.158 183.499 206.892 183.618 206.623 183.738L206.356 183.857C206.177 183.935 205.999 184.013 205.811 184.09 205.632 184.168 205.447 184.246 205.261 184.322L204.704 184.551C203.402 185.087 202.068 185.598 200.766 186.102L200.209 186.319 199.66 186.534C199.293 186.677 198.932 186.82 198.577 186.962L198.047 187.176 197.526 187.388 197.27 187.496C197.1 187.567 196.933 187.638 196.766 187.709 192.937 189.352 190.182 191.024 190.761 193.098 190.777 193.157 190.795 193.213 190.814 193.268 190.866 193.421 190.937 193.566 191.026 193.703 191.078 193.783 191.138 193.86 191.205 193.93 191.885 194.638 193.124 194.526 194.686 193.964 194.905 193.883 195.124 193.799 195.34 193.712L195.476 193.656C195.833 193.504 196.212 193.334 196.598 193.151 196.695 193.105 196.792 193.061 196.89 193.01 198.8 192.076 200.965 190.818 203.113 189.674 203.972 189.21 204.843 188.77 205.725 188.351 207.759 187.394 209.671 186.716 211.208 186.716 211.93 186.716 212.566 186.863 213.097 187.203L213.186 187.262C213.52 187.496 213.799 187.798 214.008 188.147 214.048 188.214 214.088 188.285 214.127 188.357 214.887 189.8 214.251 191.293 212.763 192.757 211.335 194.163 209.113 195.541 206.589 196.816 206.401 196.911 206.213 197.006 206.023 197.099 198.508 200.789 188.667 203.569 188.53 203.604 185.907 204.283 182.157 205.175 177.932 205.843L177.307 205.941 177.204 205.956C176.731 206.028 176.257 206.095 175.782 206.156 175.3 206.221 174.813 206.28 174.323 206.335L174.233 206.345C172.457 206.55 170.673 206.685 168.886 206.75L168.86 206.75C168.213 206.773 167.568 206.785 166.921 206.785L166.175 206.785C165.189 206.772 164.205 206.727 163.222 206.651 163.199 206.651 163.174 206.651 163.152 206.645 162.799 206.618 162.448 206.586 162.097 206.547 161.732 206.508 161.369 206.464 161.007 206.415 160.768 206.383 160.531 206.347 160.293 206.308 160.052 206.269 159.81 206.229 159.57 206.187L159.241 206.125 159.216 206.12C158.87 206.055 158.526 205.982 158.183 205.902 157.983 205.857 157.784 205.813 157.588 205.759L157.469 205.729C157.371 205.705 157.276 205.679 157.18 205.653L157.127 205.639 156.819 205.55C156.708 205.519 156.596 205.485 156.484 205.452L156.445 205.441 156.155 205.352C156.045 205.318 155.935 205.282 155.826 205.246L155.559 205.157 155.362 205.089C155.173 205.022 154.984 204.953 154.797 204.881L154.62 204.811 154.473 204.753C154.19 204.639 153.908 204.521 153.63 204.396L153.445 204.306 153.414 204.292C153.348 204.261 153.284 204.23 153.218 204.203 153.089 204.141 152.961 204.078 152.834 204.013L152.796 203.994 152.612 203.897C152.286 203.726 151.966 203.545 151.653 203.352L151.481 203.246C151.395 203.193 151.31 203.139 151.226 203.083L151.002 202.935 150.762 202.769 150.618 202.666C150.466 202.559 150.318 202.447 150.172 202.332L149.939 202.154C149.846 202.079 149.755 202.003 149.664 201.926 149.587 201.863 149.512 201.797 149.437 201.731L149.431 201.726C149.35 201.656 149.272 201.585 149.193 201.512 149.115 201.441 149.037 201.369 148.961 201.296L148.952 201.287C148.872 201.211 148.795 201.135 148.718 201.056 148.641 200.978 148.562 200.9 148.487 200.82 148.412 200.741 148.336 200.661 148.262 200.578 148.188 200.496 148.12 200.421 148.05 200.34L148.027 200.313C147.959 200.235 147.892 200.157 147.827 200.076 147.684 199.905 147.545 199.73 147.411 199.552 147.277 199.372 147.145 199.189 147.016 199.002L146.893 198.818C146.73 198.579 146.57 198.337 146.415 198.092 146.3 197.915 146.187 197.737 146.077 197.557 146.006 197.444 145.938 197.33 145.871 197.219L145.843 197.173C145.778 197.063 145.714 196.955 145.652 196.846 145.616 196.787 145.582 196.729 145.55 196.668 145.517 196.606 145.479 196.543 145.444 196.48L145.388 196.381 145.353 196.317C145.286 196.198 145.22 196.077 145.156 195.955 145.126 195.901 145.097 195.847 145.066 195.795L144.977 195.623 144.888 195.452C144.663 195.003 144.45 194.548 144.251 194.087L144.18 193.918C144.134 193.805 144.091 193.694 144.045 193.583 144.023 193.529 144.001 193.476 143.982 193.422 143.876 193.146 143.776 192.866 143.684 192.585 143.651 192.484 143.619 192.385 143.589 192.286 143.517 192.059 143.452 191.83 143.395 191.6 143.324 191.331 143.261 191.061 143.208 190.789 143.197 190.734 143.186 190.679 143.177 190.626 143.125 190.359 143.083 190.091 143.05 189.821 143.042 189.769 143.036 189.716 143.03 189.663L143.013 189.501C142.991 189.29 142.974 189.077 142.964 188.864 142.964 188.811 142.959 188.757 142.957 188.705 142.952 188.599 142.95 188.493 142.949 188.387 142.894 184.123 145.051 180.023 149.665 175.412 157.883 167.201 162.667 155.187 162.667 155.187 162.667 155.187 162.796 154.683 163.064 153.957 163.101 153.856 163.14 153.753 163.183 153.644 163.339 153.238 163.515 152.838 163.709 152.449L163.748 152.374C163.914 152.043 164.096 151.72 164.291 151.405 164.337 151.332 164.381 151.261 164.432 151.188 164.579 150.971 164.733 150.76 164.896 150.555 164.985 150.444 165.082 150.334 165.178 150.228 165.217 150.186 165.255 150.144 165.296 150.104 165.772 149.612 166.316 149.211 166.932 148.997L167.01 148.971C167.062 148.954 167.113 148.938 167.166 148.923 167.227 148.907 167.288 148.893 167.351 148.88L167.38 148.874C167.51 148.848 167.641 148.832 167.774 148.823L167.785 148.823C167.854 148.823 167.924 148.816 167.995 148.816 168.084 148.816 168.166 148.816 168.253 148.825 168.343 148.833 168.432 148.842 168.522 148.856 169.262 148.974 169.967 149.415 170.574 150.096 170.804 150.355 171.012 150.635 171.193 150.93 171.313 151.122 171.426 151.324 171.533 151.538 171.575 151.627 171.616 151.709 171.656 151.797 171.76 152.022 171.854 152.252 171.936 152.486 172.13 153.035 172.277 153.6 172.374 154.175 172.458 154.679 172.508 155.188 172.524 155.698 172.532 155.97 172.532 156.247 172.524 156.525 172.47 157.82 172.204 159.099 171.738 160.309 171.696 160.42 171.649 160.532 171.604 160.644 171.513 160.869 171.412 161.091 171.303 161.307 171.222 161.472 171.137 161.638 171.046 161.802 170.986 161.912 170.923 162.022 170.86 162.132 170.699 162.405 170.526 162.676 170.339 162.947L170.226 163.109C169.785 163.723 169.294 164.3 168.757 164.833 168.228 165.363 167.661 165.853 167.062 166.3 166.461 166.745 165.897 167.238 165.376 167.774 163.876 169.348 163.527 170.737 163.864 171.79 163.918 171.956 163.989 172.116 164.075 172.268 164.175 172.442 164.295 172.601 164.431 172.747L164.484 172.802 164.538 172.856C164.592 172.908 164.648 172.959 164.709 173.009L164.769 173.056C164.914 173.168 165.068 173.268 165.228 173.356 165.275 173.381 165.317 173.406 165.37 173.43 165.544 173.515 165.722 173.587 165.906 173.646 165.957 173.663 166.008 173.678 166.06 173.694L166.124 173.711 166.214 173.735 166.291 173.754 166.375 173.772 166.458 173.789 166.537 173.802C166.595 173.812 166.654 173.822 166.714 173.829L166.771 173.838 166.875 173.848 166.939 173.855 167.044 173.862 167.106 173.862 167.215 173.868 167.561 173.868 167.659 173.862 167.773 173.855 167.912 173.842 168.042 173.827C168.072 173.827 168.102 173.819 168.131 173.813 168.531 173.755 168.922 173.649 169.296 173.498L169.455 173.431C169.544 173.392 169.633 173.351 169.715 173.307 169.891 173.219 170.062 173.119 170.225 173.011 170.454 172.861 170.669 172.693 170.871 172.509 170.919 172.466 170.966 172.42 171.012 172.376 171.035 172.354 171.057 172.333 171.078 172.309 171.122 172.264 171.167 172.22 171.211 172.171 171.531 171.82 171.807 171.433 172.035 171.017 173.988 167.465 176.034 163.966 178.173 160.524L178.467 160.054 178.763 159.584C178.911 159.345 179.06 159.111 179.209 158.877L179.359 158.644C179.856 157.865 180.361 157.092 180.875 156.324L181.179 155.869C181.79 154.964 182.399 154.084 183.002 153.248L183.303 152.833C183.959 151.928 184.643 151.042 185.353 150.178L185.634 149.84C185.681 149.785 185.724 149.729 185.775 149.675 185.868 149.565 185.96 149.458 186.051 149.354 186.097 149.302 186.14 149.25 186.189 149.198L186.456 148.896 186.59 148.75C186.725 148.605 186.857 148.466 186.986 148.334 187.076 148.244 187.159 148.155 187.245 148.071 187.751 147.554 188.309 147.09 188.91 146.688L189.05 146.598C189.184 146.508 189.323 146.424 189.464 146.349 191.823 145.009 193.776 144.91 194.901 146.035 195.582 146.716 195.959 147.845 195.938 149.415 195.938 149.484 195.938 149.554 195.933 149.626L195.933 149.703C195.933 149.775 195.927 149.846 195.921 149.919 195.921 150.009 195.911 150.098 195.902 150.188 195.893 150.277 195.888 150.344 195.879 150.424 195.879 150.446 195.875 150.469 195.871 150.493 195.865 150.562 195.856 150.633 195.846 150.704 195.846 150.725 195.846 150.747 195.838 150.769 195.827 150.863 195.813 150.957 195.797 151.051 195.786 151.141 195.771 151.225 195.755 151.312L195.73 151.461C195.704 151.603 195.671 151.743 195.63 151.88 195.552 152.139 195.458 152.391 195.347 152.637 195.193 152.974 195.022 153.302 194.834 153.622 194.731 153.799 194.624 153.974 194.513 154.147 194.399 154.325 194.279 154.506 194.156 154.689 193.84 155.14 193.513 155.582 193.173 156.014L193.017 156.211C192.462 156.902 191.889 157.58 191.299 158.241L191.112 158.451C190.86 158.731 190.605 159.014 190.343 159.297L190.147 159.511C190.016 159.654 189.879 159.796 189.748 159.94 189.617 160.083 189.48 160.227 189.342 160.372L188.932 160.804 188.516 161.239 188.097 161.675C187.816 161.966 187.533 162.257 187.249 162.549 183.202 166.699 178.939 170.836 177.495 173.415 177.399 173.582 177.312 173.756 177.234 173.933 177.028 174.402 176.943 174.803 177.001 175.127 177.02 175.234 177.057 175.336 177.112 175.43 177.193 175.57 177.292 175.7 177.407 175.816 177.46 175.868 177.515 175.916 177.574 175.96 177.872 176.171 178.23 176.28 178.595 176.27L178.709 176.27 178.826 176.261 178.943 176.248 179.039 176.234C179.052 176.232 179.066 176.23 179.079 176.226L179.168 176.209 179.191 176.204 179.29 176.183 179.325 176.174C179.36 176.165 179.394 176.156 179.429 176.146 179.463 176.136 179.511 176.123 179.553 176.109 179.729 176.056 179.901 175.994 180.069 175.922 180.158 175.886 180.245 175.847 180.331 175.805 180.376 175.785 180.421 175.764 180.462 175.742L180.596 175.676C180.916 175.51 181.227 175.33 181.53 175.136L181.663 175.046C181.708 175.018 181.753 174.99 181.796 174.958L181.928 174.869 181.999 174.82 182.191 174.685C182.37 174.562 182.536 174.436 182.705 174.307L182.72 174.295 182.988 174.087C183.355 173.798 183.702 173.507 184.017 173.232L184.227 173.048 184.246 173.031 184.356 172.934C184.613 172.702 184.843 172.487 185.033 172.309L185.112 172.232C185.181 172.167 185.244 172.106 185.301 172.054L185.412 171.944 185.452 171.905 185.463 171.894 185.58 171.777 185.654 171.7 185.663 171.693 185.698 171.661 185.742 171.621 185.756 171.608 185.793 171.574 185.996 171.396 186.11 171.294C186.171 171.241 186.23 171.187 186.289 171.132L186.424 171.012C186.449 170.992 186.473 170.97 186.498 170.948L186.641 170.823 186.851 170.638 186.962 170.542C187.396 170.164 187.924 169.708 188.531 169.194L188.78 168.984 189.19 168.639 189.61 168.289C190.159 167.833 190.75 167.349 191.374 166.847L191.785 166.518C192.134 166.239 192.492 165.956 192.855 165.67 193.002 165.556 193.151 165.441 193.302 165.327 193.674 165.039 194.047 164.752 194.423 164.47 195.279 163.823 196.163 163.175 197.057 162.545L197.44 162.277C197.709 162.093 197.976 161.907 198.243 161.726L198.486 161.563C198.964 161.238 199.449 160.922 199.938 160.614L200.181 160.461 200.421 160.311C200.663 160.162 200.902 160.015 201.141 159.872L201.379 159.729 201.856 159.452 202.324 159.184 202.419 159.132 202.789 158.928C202.944 158.844 203.098 158.763 203.251 158.685L203.48 158.567 203.702 158.455C203.78 158.418 203.857 158.379 203.933 158.342 204.434 158.095 204.945 157.867 205.464 157.66 205.605 157.6 205.744 157.546 205.883 157.499L206.292 157.355C206.415 157.314 206.535 157.275 206.649 157.241L206.689 157.229C206.751 157.209 206.813 157.191 206.874 157.175L206.892 157.17C207.02 157.133 207.146 157.101 207.271 157.071L207.28 157.071C207.633 156.986 207.993 156.925 208.355 156.888 208.522 156.871 208.688 156.862 208.856 156.863L208.94 156.863C209.052 156.863 209.159 156.87 209.266 156.881 209.315 156.881 209.364 156.891 209.412 156.897L209.432 156.897C209.48 156.903 209.528 156.91 209.575 156.921 209.622 156.93 209.67 156.938 209.716 156.949L209.731 156.949C209.778 156.959 209.82 156.971 209.869 156.985 210.122 157.056 210.364 157.166 210.585 157.309 210.694 157.38 210.796 157.46 210.89 157.549L210.917 157.575C210.935 157.591 210.952 157.608 210.968 157.625L211.017 157.678C211.418 158.098 211.749 158.58 211.999 159.105L212.036 159.195C212.121 159.394 212.188 159.601 212.236 159.811 212.378 160.456 212.323 161.129 212.078 161.742 211.986 161.99 211.873 162.228 211.74 162.456 211.43 162.979 211.061 163.465 210.643 163.905L210.555 164C210.422 164.14 210.284 164.279 210.139 164.419 210.075 164.482 210.009 164.544 209.942 164.607L209.737 164.795 209.63 164.89C209.373 165.12 209.108 165.342 208.84 165.558 208.677 165.689 208.514 165.818 208.348 165.945 207.763 166.392 207.167 166.823 206.561 167.239 206.194 167.491 205.825 167.737 205.453 167.981 204.536 168.583 203.609 169.169 202.672 169.74 200.708 170.948 198.532 172.239 196.212 173.643L195.611 174.008C194.953 174.409 194.332 174.792 193.748 175.157L193.453 175.342 192.896 175.699C192.527 175.936 192.159 176.174 191.791 176.413L191.494 176.608C191.349 176.702 191.206 176.798 191.062 176.894L190.921 176.984 190.49 177.274 190.262 177.431 189.994 177.616 189.746 177.789C189.329 178.083 188.942 178.364 188.586 178.63L188.452 178.732C188.243 178.891 188.035 179.052 187.831 179.217 187.522 179.465 187.241 179.703 186.988 179.932L186.864 180.044C186.794 180.109 186.724 180.174 186.657 180.238 186.611 180.283 186.568 180.328 186.52 180.371L186.456 180.435C186.314 180.578 186.174 180.725 186.039 180.876L185.973 180.951C185.827 181.121 185.699 181.284 185.587 181.442L185.537 181.513C185.449 181.641 185.369 181.773 185.296 181.909 185.277 181.942 185.26 181.976 185.243 182.01L185.194 182.112 185.161 182.186 185.14 182.236 185.123 182.281 185.1 182.342C185.038 182.51 184.995 182.686 184.97 182.864L184.962 182.925 184.956 182.983 184.956 183.298C184.956 183.324 184.956 183.35 184.963 183.378L184.968 183.425C184.968 183.451 184.974 183.476 184.978 183.504 184.982 183.53 184.989 183.577 184.997 183.614L184.997 183.619C185.004 183.654 185.011 183.688 185.02 183.723 185.029 183.758 185.038 183.798 185.049 183.834 185.068 183.904 185.092 183.974 185.117 184.044 185.133 184.086 185.148 184.127 185.165 184.168 185.165 184.176 185.171 184.185 185.175 184.193L185.211 184.274 185.261 184.385C185.315 184.499 185.374 184.611 185.437 184.72L185.503 184.834 185.571 184.947C185.583 184.966 185.597 184.984 185.612 185.001L185.634 185.024 185.659 185.047 185.685 185.067C185.723 185.094 185.764 185.115 185.807 185.13 185.83 185.138 185.854 185.144 185.877 185.15 186.453 185.28 187.637 184.804 189.21 183.973 189.299 183.925 189.396 183.876 189.491 183.824L189.97 183.562 190.204 183.432C190.37 183.344 190.54 183.243 190.714 183.144L191.03 182.965C193.109 181.769 195.592 180.232 198.159 178.731 198.399 178.59 198.641 178.45 198.882 178.311L199.367 178C199.93 177.678 200.496 177.36 201.064 177.045 201.779 176.652 202.5 176.269 203.227 175.898L203.702 175.657C204.018 175.501 204.33 175.35 204.638 175.202 205.235 174.919 205.839 174.649 206.45 174.395L206.784 174.259 206.824 174.243C208.595 173.541 210.201 173.108 211.501 173.108 211.781 173.105 212.062 173.129 212.339 173.177L212.348 173.177C212.437 173.193 212.518 173.211 212.6 173.231L212.615 173.231C212.828 173.285 213.034 173.362 213.23 173.461 213.505 173.602 213.751 173.791 213.96 174.019 214.055 174.124 214.14 174.239 214.215 174.361 214.355 174.575 214.465 174.808 214.543 175.051 214.575 175.146 214.603 175.239 214.632 175.338 214.843 176.093 214.822 176.895 214.572 177.638Z" fill="#FF9D00" transform="matrix(1.00278 0 0 1 -25.9165 -25.8446)"/><path d="M202.799 123.435 202.799 122.945C202.799 81.1756 168.95 47.3152 127.177 47.3152 85.4061 47.3152 51.5436 81.1776 51.5436 122.945L51.5436 123.109C51.5416 123.217 51.5406 123.326 51.5436 123.435 51.5485 123.598 51.5502 123.76 51.5486 123.923L51.5537 124.282 51.5566 124.411C51.5566 124.471 51.5587 124.53 51.5607 124.59 51.5637 124.684 51.5655 124.78 51.5655 124.875L51.5765 125.263 51.5925 125.719 51.5975 125.869 51.6174 126.341 51.6174 126.364C51.6254 126.549 51.6355 126.732 51.6445 126.916L51.6454 126.93C51.6554 127.118 51.6654 127.306 51.6774 127.495 51.6874 127.668 51.6973 127.842 51.7103 128.016L51.7124 128.047C51.721 128.195 51.731 128.345 51.7422 128.494L51.7452 128.534 51.7781 128.965 51.7812 128.993C51.7872 129.077 51.7931 129.16 51.8011 129.241 51.8608 129.961 51.9303 130.68 52.0098 131.398L52.0146 131.443 52.0755 131.971 52.1435 132.525 52.1933 132.901 52.2162 133.077C52.2694 133.485 52.327 133.891 52.3889 134.296L52.393 134.323 52.4518 134.706C52.7367 136.531 53.0896 138.346 53.5096 140.145L53.5147 140.167 53.5465 140.302 53.6374 140.686 53.6932 140.619C55.8888 137.994 59.0384 136.547 62.5623 136.547 65.3866 136.547 68.2838 137.482 71.1879 139.323 73.114 140.546 75.2437 142.713 77.4352 145.438 79.4631 142.622 82.3054 140.75 85.5568 140.239 86.1767 140.141 86.8034 140.092 87.431 140.091 94.852 140.091 99.3218 146.531 101.01 152.324 101.845 154.281 105.866 163.195 111.929 169.225 121.147 178.434 123.453 187.935 118.891 198.11L118.907 198.11C119.218 198.145 119.53 198.177 119.844 198.206 120.031 198.223 120.216 198.241 120.404 198.257L120.47 198.263 120.882 198.298 121.261 198.328C121.623 198.356 121.985 198.382 122.348 198.405L122.637 198.422 122.865 198.436 123.007 198.444 123.453 198.467 123.575 198.472 124.043 198.493 124.564 198.513 124.982 198.525 125.052 198.527C125.141 198.531 125.229 198.534 125.318 198.534L125.414 198.537C126.003 198.551 126.591 198.558 127.179 198.557L127.804 198.557 128.25 198.552C128.36 198.547 128.469 198.547 128.58 198.547L128.753 198.547 128.904 198.543C128.963 198.541 129.022 198.539 129.082 198.539L129.26 198.539 129.61 198.53 130.137 198.512 130.717 198.486C130.885 198.48 131.051 198.471 131.216 198.463L131.395 198.452 131.66 198.438 131.816 198.429 131.934 198.421 132.47 198.386 133.005 198.347 133.491 198.308 133.832 198.279 134.207 198.245C134.834 198.19 135.459 198.124 136.083 198.049L136.509 197.998C132.02 187.866 134.344 178.406 143.522 169.234 149.573 163.188 153.594 154.275 154.432 152.316 156.122 146.524 160.589 140.084 168.012 140.084 168.639 140.084 169.267 140.134 169.887 140.232 173.135 140.743 175.978 142.615 178.008 145.431 180.201 142.707 182.33 140.538 184.257 139.315 187.16 137.475 190.06 136.54 192.881 136.54 195.991 136.54 198.809 137.668 200.938 139.737 200.977 139.568 201.015 139.4 201.052 139.23L201.161 138.725C201.199 138.54 201.238 138.356 201.275 138.171 201.341 137.845 201.407 137.518 201.47 137.189 201.536 136.848 201.599 136.505 201.659 136.161L201.689 135.976C201.708 135.866 201.726 135.756 201.747 135.645 201.781 135.474 201.809 135.302 201.837 135.128L201.848 135.062 201.919 134.61 201.989 134.152 201.989 134.148C202.04 133.81 202.088 133.472 202.133 133.133L202.144 133.049 202.206 132.572 202.257 132.165 202.347 131.363 202.382 131.041 202.391 130.953C202.41 130.779 202.428 130.605 202.444 130.432L202.444 130.418C202.457 130.28 202.471 130.141 202.483 130.003 202.554 129.216 202.614 128.426 202.661 127.632 202.67 127.503 202.677 127.372 202.685 127.241L202.685 127.235 202.711 126.745 202.717 126.635C202.733 126.304 202.747 125.973 202.758 125.642L202.758 125.63 202.763 125.5C202.768 125.391 202.772 125.281 202.772 125.171L202.774 125.128C202.778 125.025 202.782 124.919 202.782 124.814L202.785 124.724C202.788 124.62 202.791 124.516 202.791 124.411L202.793 124.322C202.796 124.189 202.799 124.056 202.799 123.923L202.799 123.435ZM108.418 198.988C114.408 190.205 113.983 183.612 105.766 175.399 97.5465 167.184 92.7631 155.173 92.7631 155.173 92.7631 155.173 90.9778 148.196 86.9061 148.837 82.8343 149.477 79.8474 159.903 88.3731 166.285 96.8978 172.667 86.6765 176.994 83.3952 171.006 80.1138 165.016 71.1549 149.62 66.5103 146.675 61.8657 143.73 58.5993 145.381 59.6941 151.45 60.238 154.463 65.2958 159.606 70.0213 164.41 74.8156 169.284 79.2674 173.811 78.3154 175.413 76.4262 178.593 69.7728 171.675 69.7728 171.675 69.7728 171.675 48.9389 152.716 44.4041 157.657 40.2225 162.21 46.6705 166.082 56.6064 172.049 57.4507 172.555 58.321 173.078 59.2122 173.617 70.5801 180.499 71.4642 182.315 69.8505 184.918 69.2547 185.88 65.4494 183.596 60.7689 180.787 52.7901 175.996 42.2695 169.679 40.7835 175.333 39.4981 180.226 47.2383 183.224 54.2581 185.943 60.1063 188.209 65.4555 190.281 64.6681 193.093 63.8528 196.009 59.4327 193.577 54.6015 190.918 49.1775 187.933 43.2345 184.664 41.2895 188.353 37.6139 195.329 66.6481 203.542 66.8876 203.603 76.2686 206.036 100.092 211.191 108.418 198.988ZM147.005 198.988C141.015 190.205 141.441 183.612 149.659 175.399 157.877 167.184 162.661 155.173 162.661 155.173 162.661 155.173 164.446 148.196 168.518 148.837 172.589 149.477 175.576 159.903 167.052 166.285 158.526 172.667 168.747 176.994 172.029 171.006 175.311 165.016 184.264 149.62 188.908 146.675 193.553 143.73 196.821 145.381 195.726 151.45 195.183 154.463 190.124 159.606 185.398 164.411 180.604 169.285 176.152 173.811 177.103 175.413 178.992 178.593 185.651 171.671 185.651 171.671 185.651 171.671 206.484 152.713 211.021 157.654 215.201 162.206 208.753 166.079 198.816 172.046 197.947 172.567 197.079 173.09 196.212 173.614 184.844 180.496 183.959 182.312 185.572 184.914 186.169 185.877 189.974 183.592 194.654 180.783 202.634 175.993 213.154 169.675 214.64 175.33 215.927 180.223 208.185 183.221 201.166 185.94 195.317 188.206 189.968 190.278 190.755 193.09 191.569 196.005 195.988 193.573 200.818 190.914 206.242 187.929 212.186 184.658 214.13 188.35 217.807 195.33 188.768 203.535 188.533 203.595 179.152 206.036 155.328 211.191 147.005 198.988Z" fill="#FFD21E" fill-rule="evenodd" transform="matrix(1.00278 0 0 1 -25.9165 -25.8446)"/><path d="M151.74 102.36C152.919 102.777 153.796 104.046 154.631 105.255 155.758 106.887 156.808 108.407 158.419 107.551 160.319 106.54 161.877 104.989 162.895 103.093 163.914 101.197 164.348 99.0421 164.143 96.8997 163.989 95.2978 163.482 93.7499 162.658 92.3677 161.833 90.9854 160.712 89.8031 159.377 88.9061 158.041 88.0091 156.522 87.4197 154.931 87.1803 153.339 86.9409 151.715 87.0576 150.174 87.5217 148.633 87.9857 147.215 88.7855 146.02 89.8635 144.826 90.9415 143.885 92.2709 143.266 93.7561 142.647 95.2413 142.365 96.8453 142.439 98.4526 142.515 100.06 142.945 101.63 143.701 103.051 144.447 104.455 146.104 103.793 147.853 103.093 149.223 102.545 150.651 101.974 151.74 102.36ZM100.468 102.36C99.2889 102.777 98.4117 104.047 97.5773 105.255 96.4496 106.888 95.3988 108.407 93.789 107.551 91.3994 106.286 89.5668 104.175 88.6482 101.632 87.7298 99.0888 87.7914 96.2945 88.8209 93.7941 89.8504 91.2937 91.7742 89.2663 94.2172 88.107 96.6602 86.9478 99.4474 86.7399 102.035 87.5237 104.096 88.1443 105.926 89.3617 107.296 91.0221 108.665 92.6827 109.51 94.7117 109.727 96.8528 109.942 98.994 109.518 101.151 108.508 103.051 107.761 104.455 106.104 103.793 104.356 103.094 102.984 102.545 101.558 101.974 100.468 102.36ZM143.808 149.016C151.934 142.614 154.919 132.161 154.919 125.722 154.919 120.633 151.495 122.234 146.013 124.949L145.704 125.102C140.672 127.594 133.974 130.912 126.621 130.912 119.266 130.912 112.568 127.594 107.537 125.101 101.878 122.297 98.3278 120.539 98.3278 125.723 98.3278 132.366 101.503 143.273 110.22 149.609 111.37 147.275 112.99 145.203 114.978 143.522 116.965 141.842 119.278 140.589 121.771 139.843 122.642 139.583 123.538 141.081 124.455 142.615 125.34 144.094 126.245 145.607 127.165 145.607 128.146 145.607 129.109 144.116 130.051 142.661 131.034 141.139 131.993 139.657 132.92 139.954 137.585 141.451 141.488 144.7 143.808 149.016Z" fill="#32343D" fill-rule="evenodd" transform="matrix(1.00278 0 0 1 -25.9165 -25.8446)"/><path d="M143.806 149.015C139.573 152.35 133.948 154.587 126.622 154.587 119.738 154.587 114.355 152.613 110.22 149.608 111.37 147.274 112.99 145.201 114.978 143.521 116.965 141.841 119.278 140.588 121.771 139.842 123.48 139.332 125.291 145.606 127.165 145.606 129.171 145.606 131.104 139.373 132.92 139.952 137.584 141.451 141.486 144.7 143.806 149.015Z" fill="#FF323D" transform="matrix(1.00278 0 0 1 -25.9165 -25.8446)"/><path d="M81.0359 111.414C80.069 112.061 78.9574 112.459 77.7996 112.573 76.6419 112.688 75.4738 112.514 74.3993 112.068 73.5403 111.714 72.7598 111.193 72.1028 110.535 71.4456 109.878 70.9247 109.098 70.5701 108.239 70.125 107.164 69.9518 105.996 70.0663 104.839 70.1806 103.681 70.5789 102.569 71.2257 101.602 72.003 100.439 73.1077 99.5317 74.4005 98.9962 75.6933 98.4607 77.1158 98.3205 78.4881 98.5938 79.8605 98.8669 81.121 99.5411 82.1101 100.53 83.0992 101.52 83.7725 102.782 84.0448 104.154 84.3175 105.526 84.1772 106.948 83.6419 108.241 83.1065 109.533 82.1989 110.637 81.0359 111.414ZM182.244 111.414C181.277 112.061 180.165 112.459 179.007 112.573 177.849 112.688 176.681 112.514 175.606 112.068 174.747 111.713 173.967 111.193 173.31 110.535 172.653 109.878 172.132 109.098 171.777 108.239 171.333 107.164 171.16 105.996 171.274 104.839 171.389 103.681 171.787 102.569 172.433 101.602 173.014 100.732 173.781 100.002 174.678 99.4643 175.575 98.9265 176.58 98.5945 177.621 98.4922 178.663 98.3898 179.714 98.5197 180.698 98.8725 181.683 99.2254 182.577 99.7923 183.317 100.532 184.307 101.521 184.98 102.782 185.253 104.154 185.526 105.526 185.385 106.948 184.85 108.241 184.314 109.533 183.408 110.637 182.244 111.414Z" fill="#FFAD03" fill-rule="evenodd" transform="matrix(1.00278 0 0 1 -25.9165 -25.8446)"/></g></svg>